<?xml version="1.0" encoding="utf-8"?>
<!-- Generator: Adobe Illustrator 23.0.0, SVG Export Plug-In . SVG Version: 6.00 Build 0)  -->
<svg version="1.1" id="Ebene_1" xmlns="http://www.w3.org/2000/svg" xmlns:xlink="http://www.w3.org/1999/xlink" x="0px" y="0px"
	 viewBox="0 0 870.7 102" style="enable-background:new 0 0 870.7 102;" xml:space="preserve">
<polygon points="38.7,14.8 38.7,26.2 44,26.2 21.6,49.6 21.6,26.2 27.5,26.2 27.5,14.8 1,14.8 1,26.2 7,26.2 7,74.5 1,74.5 1,86 
	27.5,86 27.5,74.6 21.6,74.6 21.6,65.3 31.6,55.3 44.8,74.5 39,74.5 39,85.9 68.9,85.9 68.9,74.5 63.4,74.5 42.7,45.1 61.5,26.2 
	67.9,26.2 67.9,14.8 "/>
<path d="M93.4,27.2H79.5V12.7h13.9V27.2z M93.4,33.6v40.9h6v11.4H73.5V74.5h5.9V45h-5.9V33.6H93.4z"/>
<path d="M136.8,54.1c0.2-1,0.3-2.1,0.3-3.1c0-4.4-2.4-7.8-9.1-7.8c-7.4,0-11,4.2-11.5,10.9H136.8z M116.5,62.7
	c0.4,7.7,5.1,12.9,14.5,12.9c5.5,0.1,11-0.6,16.3-2.1l1.7,11c-6.5,1.8-13.2,2.6-20,2.5c-20.2,0-27.2-10.7-27.2-27.2s7-27.2,27-27.2
	c16.4,0,22.4,7.9,22.4,21.4c0,2.9-0.3,5.8-0.7,8.7L116.5,62.7z"/>
<polygon points="175.2,12.7 175.2,74.5 181.2,74.5 181.2,85.9 155.4,85.9 155.4,74.5 161.3,74.5 161.3,24.1 155.4,24.1 155.4,12.7 
	"/>
<path d="M219.9,54.1c0.2-1,0.3-2.1,0.3-3.1c0-4.4-2.4-7.8-9.1-7.8c-7.4,0-11,4.2-11.5,10.9H219.9z M199.6,62.7
	c0.4,7.7,5.1,12.9,14.5,12.9c5.5,0.1,11-0.6,16.3-2.1l1.7,11c-6.5,1.8-13.2,2.6-20,2.5C192,86.9,185,76.3,185,59.8s7-27.2,27-27.2
	c16.4,0,22.4,7.9,22.4,21.4c0,2.9-0.3,5.8-0.7,8.7L199.6,62.7z"/>
<path d="M258.9,33.6V42h0.3c4.1-5.8,10.7-9.3,17.9-9.4v13c-6.3,0-12.5,1.3-18.2,3.9v25h6.5v11.4h-26.2V74.5h5.9V45h-5.9V33.6H258.9z
	"/>
<polygon points="365.8,26.2 365.8,85.9 350.8,85.9 322.3,41.2 322.1,41.2 322.1,74.5 328.5,74.5 328.5,85.9 302.9,85.9 302.9,74.5 
	308.8,74.5 308.8,26.2 302.9,26.2 302.9,14.8 323,14.8 352.3,61.4 352.5,61.4 352.5,26.2 346.1,26.2 346.1,14.8 371.9,14.8 
	371.9,26.2 "/>
<path d="M397.1,62.8c-6.3,0-10.2,1.3-10.2,6.9c0,4.6,3.6,6.7,7.9,6.7c3.6,0,7.1-1.1,10-3.2V62.7L397.1,62.8z M376.3,35
	c7.1-1.5,14.4-2.3,21.6-2.4c13.4,0,20.7,3.3,20.7,17.6v24.3h6v11.4h-19.9v-5.2h-0.2c-3.8,4.1-9.1,6.4-14.6,6.3
	c-8.5,0-16.9-5-16.9-15.7c0-12.9,11.6-16.8,22.4-16.8h9.4v-3.5c0-5.2-3.4-6.9-10.1-6.9c-2.3,0-4.7,0.3-7,0.6v5.1h-11.3V35z"/>
<path d="M461.6,44.5c-2.3-0.4-4.6-0.6-6.9-0.5c-7.9,0-12.3,5.4-12.3,15.9s4.4,15.9,12.3,15.9c5.4,0.1,10.7-0.6,15.9-2.1l2.4,11
	c-6,1.6-12.1,2.5-18.3,2.5c-20.3,0-27-10.7-27-27.2s6.7-27.2,27-27.2c6.2,0,12.3,0.9,18.3,2.5v14.6h-11.4V44.5z"/>
<path d="M515.9,74.5V53.4c0-6-2.3-9.3-8.3-9.3c-3.9,0.3-7.6,1.7-10.8,4v26.4h5.2v11.4h-25V74.5h6V24.1h-6V12.7H497v27.8h0.2
	c4.3-4.9,10.4-7.8,16.9-7.8c10.5,0,15.7,6.8,15.7,17.6v24.3h6v11.4h-25.1V74.5H515.9z"/>
<path d="M559.6,33.6V42h0.2c4.1-5.9,10.8-9.4,18-9.4v13c-6.3,0-12.5,1.3-18.2,3.9v25h6.5v11.4h-26.3V74.5h6V45h-6V33.6H559.6z"/>
<path d="M601.8,27.3H588V12.9h13.9L601.8,27.3z M601.8,33.8v40.9h6V86H582V74.6h6V45.2h-6V33.8H601.8z"/>
<path d="M644.5,44.5c-2.3-0.4-4.6-0.6-6.9-0.5c-7.9,0-12.3,5.4-12.3,15.9s4.4,15.9,12.3,15.9c5.4,0.1,10.7-0.6,15.9-2.1l2.4,11
	c-6,1.6-12.1,2.5-18.3,2.5c-20.3,0-27-10.7-27-27.2s6.7-27.2,27-27.2c6.2,0,12.3,0.9,18.3,2.5v14.6h-11.4L644.5,44.5z"/>
<path d="M698.8,74.5V53.4c0-6-2.3-9.3-8.3-9.3c-3.9,0.3-7.6,1.7-10.8,4v26.4h5.3v11.4h-25V74.5h6V24.1h-6V12.7h19.8v27.8h0.2
	c4.3-4.9,10.4-7.8,16.9-7.8c10.5,0,15.7,6.8,15.7,17.6v24.3h6v11.4h-25V74.5H698.8z"/>
<path d="M720.2,43.4v-9l7-0.8l1.7-14.6H741v14.6h13v9.8h-13v25.1c0,4.8,2.1,7.3,7.5,7.3c1.6,0,3.2-0.2,4.7-0.5l1.2,10.6
	c-3.6,0.6-7.2,0.9-10.8,0.9c-11.9,0-16.5-5-16.5-16V43.4H720.2z"/>
<path d="M792.8,54.1c0.2-1,0.3-2.1,0.3-3.1c0-4.4-2.4-7.8-9.1-7.8c-7.4,0-11,4.2-11.5,10.9H792.8z M772.5,62.7
	c0.4,7.7,5.1,12.9,14.5,12.9c5.5,0.1,11-0.6,16.3-2.1l1.7,11c-6.5,1.8-13.2,2.6-20,2.5c-20.2,0-27.2-10.7-27.2-27.2s7-27.2,27-27.2
	c16.4,0,22.4,7.9,22.4,21.4c0,2.9-0.3,5.8-0.7,8.7L772.5,62.7z"/>
<path d="M850.7,74.5V53.4c0-6-2.3-9.3-8.3-9.3c-3.9,0.3-7.6,1.7-10.8,4v26.4h5.2v11.4H812V74.5h6V45h-6V33.6h19.8v6.8h0.2
	c4.3-4.9,10.4-7.7,16.9-7.8c10.5,0,15.7,6.8,15.7,17.6v24.4h6v11.4h-25.1V74.5H850.7z"/>
</svg>
