<?xml version="1.0" encoding="utf-8"?>
<!-- Generator: Adobe Illustrator 26.0.3, SVG Export Plug-In . SVG Version: 6.00 Build 0)  -->
<svg version="1.1" id="Ebene_1" xmlns="http://www.w3.org/2000/svg" xmlns:xlink="http://www.w3.org/1999/xlink" x="0px" y="0px"
	 viewBox="0 0 1010.4 102" style="enable-background:new 0 0 1010.4 102;" xml:space="preserve">
<style type="text/css">
	.st0{fill:#4F80FF;}
	.st1{fill:#F33C22;}
</style>
<g>
	<polygon points="38.8,14.8 38.8,26.2 44.1,26.2 21.6,49.6 21.6,26.2 27.6,26.2 27.6,14.8 1,14.8 1,26.2 7,26.2 7,74.5 1,74.5 1,86 
		27.6,86 27.6,74.6 21.6,74.6 21.6,65.3 31.6,55.3 44.8,74.5 39.1,74.5 39.1,85.9 69,85.9 69,74.5 63.4,74.5 42.7,45.1 61.5,26.2 
		67.9,26.2 67.9,14.8 	"/>
	<path d="M93.4,27.2H79.5V12.7h13.9V27.2z M93.4,33.6v40.9h6v11.4H73.5V74.5h6V45h-6V33.6H93.4z"/>
	<g>
		<path d="M136.8,54.1c0.2-1,0.3-2.1,0.3-3.1c0-4.4-2.4-7.7-9.1-7.7c-7.4,0-11,4.2-11.5,10.9H136.8z M116.5,62.7
			c0.4,7.7,5.1,12.9,14.5,12.9c5.5,0.1,11-0.6,16.3-2.1l1.7,11c-6.5,1.8-13.2,2.6-20,2.5c-20.2,0-27.2-10.7-27.2-27.2
			c0-16.5,7-27.2,27-27.2c16.4,0,22.4,7.9,22.4,21.4c0,2.9-0.3,5.8-0.7,8.7H116.5z"/>
	</g>
	<polygon points="175.3,12.7 175.3,74.5 181.2,74.5 181.2,85.9 155.4,85.9 155.4,74.5 161.4,74.5 161.4,24.1 155.4,24.1 155.4,12.7 
			"/>
	<g>
		<path d="M220,54.1c0.2-1,0.3-2.1,0.3-3.1c0-4.4-2.4-7.7-9.1-7.7c-7.4,0-11,4.2-11.5,10.9H220z M199.7,62.7
			c0.4,7.7,5.1,12.9,14.5,12.9c5.5,0.1,11-0.6,16.3-2.1l1.7,11c-6.5,1.8-13.2,2.6-20,2.5C192,86.9,185,76.3,185,59.8
			c0-16.5,7-27.2,27-27.2c16.4,0,22.4,7.9,22.4,21.4c0,2.9-0.3,5.8-0.7,8.7H199.7z"/>
		<path d="M259,33.6V42h0.3c4.1-5.8,10.7-9.3,17.9-9.4v13.1c-6.3,0-12.5,1.3-18.2,3.9v25h6.5v11.4h-26.2V74.5h6V45h-6V33.6H259z"/>
	</g>
	<polygon points="365.8,26.2 365.8,85.9 350.8,85.9 322.4,41.2 322.1,41.2 322.1,74.5 328.5,74.5 328.5,85.9 302.9,85.9 302.9,74.5 
		308.8,74.5 308.8,26.2 302.9,26.2 302.9,14.8 323,14.8 352.3,61.4 352.5,61.4 352.5,26.2 346.1,26.2 346.1,14.8 371.9,14.8 
		371.9,26.2 	"/>
	<g>
		<path d="M397.1,62.8c-6.3,0-10.2,1.3-10.2,6.9c0,4.6,3.7,6.7,7.9,6.7c3.6,0,7-1.1,10-3.2V62.7L397.1,62.8z M376.3,35
			c7.1-1.5,14.4-2.3,21.6-2.4c13.4,0,20.7,3.4,20.7,17.6v24.4h6v11.4h-19.8v-5.2h-0.2c-3.8,4.1-9.1,6.4-14.6,6.3
			c-8.5,0-16.9-5-16.9-15.7c0-12.9,11.6-16.8,22.4-16.8h9.4v-3.6c0-5.2-3.4-6.9-10.1-6.9c-2.3,0-4.7,0.3-7,0.6v5.1h-11.3V35z"/>
		<path d="M461.7,44.5c-2.3-0.4-4.6-0.6-6.9-0.5c-7.9,0-12.3,5.4-12.3,15.9c0,10.4,4.4,15.9,12.3,15.9c5.4,0.1,10.7-0.6,15.9-2.1
			l2.4,11c-6,1.6-12.1,2.5-18.3,2.5c-20.3,0-27-10.7-27-27.2c0-16.5,6.7-27.2,27-27.2c6.2,0,12.3,0.9,18.3,2.5v14.6h-11.4V44.5z"/>
		<path d="M516,74.5V53.4c0-6-2.3-9.3-8.3-9.3c-3.9,0.3-7.6,1.7-10.8,4v26.5h5.2v11.4h-25V74.5h6V24.1h-6V12.7H497v27.8h0.2
			c4.3-4.9,10.4-7.7,16.9-7.8c10.5,0,15.7,6.8,15.7,17.6v24.3h6v11.4h-25.1V74.5H516z"/>
		<path d="M559.6,33.6V42h0.2c4.1-5.9,10.8-9.4,18-9.4v13.1c-6.3,0-12.5,1.3-18.2,3.9v25h6.5v11.4h-26.2V74.5h6V45h-6V33.6H559.6z"
			/>
	</g>
	<path d="M601.9,27.3H588V12.9h13.9V27.3z M601.9,33.8v40.9h6V86H582V74.6h6V45.2h-6V33.8H601.9z"/>
	<g>
		<path d="M644.5,44.5c-2.3-0.4-4.6-0.6-6.9-0.5c-7.9,0-12.3,5.4-12.3,15.9c0,10.4,4.4,15.9,12.3,15.9c5.4,0.1,10.7-0.6,15.9-2.1
			l2.4,11c-6,1.6-12.1,2.5-18.3,2.5c-20.3,0-27-10.7-27-27.2c0-16.5,6.7-27.2,27-27.2c6.2,0,12.3,0.9,18.3,2.5v14.6h-11.4
			L644.5,44.5z"/>
		<path d="M698.8,74.5V53.4c0-6-2.3-9.3-8.3-9.3c-3.9,0.3-7.6,1.7-10.8,4v26.5h5.2v11.4h-25V74.5h6V24.1h-6V12.7h19.8v27.8h0.2
			c4.3-4.9,10.4-7.7,16.9-7.8c10.5,0,15.7,6.8,15.7,17.6v24.3h6v11.4h-25V74.5H698.8z"/>
		<path d="M720.2,43.4v-9l7-0.8l1.7-14.6H741v14.6h13v9.8h-13v25.1c0,4.8,2.1,7.3,7.5,7.3c1.6,0,3.2-0.2,4.7-0.5l1.3,10.7
			c-3.6,0.6-7.2,0.9-10.8,0.9c-11.9,0-16.5-5-16.5-16V43.4H720.2z"/>
		<path d="M792.8,54.1c0.2-1,0.3-2.1,0.3-3.1c0-4.4-2.4-7.7-9.1-7.7c-7.4,0-11,4.2-11.5,10.9H792.8z M772.5,62.7
			c0.4,7.7,5.1,12.9,14.5,12.9c5.5,0.1,11-0.6,16.3-2.1l1.7,11c-6.5,1.8-13.2,2.6-20,2.5c-20.2,0-27.2-10.7-27.2-27.2
			c0-16.5,7-27.2,27-27.2c16.4,0,22.4,7.9,22.4,21.4c0,2.9-0.3,5.8-0.7,8.7H772.5z"/>
		<path d="M850.7,74.5V53.4c0-6-2.3-9.3-8.3-9.3c-3.9,0.3-7.6,1.7-10.8,4v26.5h5.2v11.4H812V74.5h6V45h-6V33.6h19.8v6.8h0.2
			c4.3-4.9,10.4-7.7,16.9-7.8c10.5,0,15.7,6.8,15.7,17.6v24.4h6v11.4h-25.1V74.5H850.7z"/>
	</g>
	<g>
		<path class="st0" d="M1009.4,51c0-27.6-22.4-50-50-50c-27.6,0-50,22.4-50,50s22.4,50,50,50C987,101,1009.4,78.6,1009.4,51
			 M1004.5,51c0,24.9-20.2,45.1-45.1,45.1S914.2,75.9,914.2,51s20.2-45.1,45.1-45.1S1004.5,26.1,1004.5,51"/>
		<g>
			<path class="st1" d="M959.1,61.3h2.2V40.7h-2.2v-3.1l7.5,0c-2.6-4-6.4-7.2-10.8-9.1c-3-1.3-6.2-2-9.6-2
				c-13.5,0-24.5,11-24.5,24.5c0,13.5,11,24.5,24.5,24.5c0.1,0,0.2,0,0.3,0c0.1,0,0.3,0,0.4,0c3.6,0,7-0.7,10.1-2
				c4.7-1.9,8.6-5.1,11.3-9.1h-9.2V61.3z M957.8,64.4h-11.2v-3.1h2.2l-5-8.4l-3.8,3.7v4.7h2.2v3.1h-10v-3.1h2.2V40.7h-2.2v-3.1h10
				v3.1H940v10l8.5-10h-2v-3.1h11v3.1l-2.5,0l-7,8.3l7.8,12.3h2.1V64.4z"/>
			<path class="st0" d="M989.4,28.5h-33.6c4.4,1.9,8.2,5.1,10.8,9.1h0l11.1,17.6h0.1V40.7h-2.4v-3.1h9.7v3.1h-2.3v23.7h-5.7
				l-10.7-16.8h-0.1v13.7h2v3.1l0,0c-2.7,4-6.7,7.2-11.3,9.1h32.4c1.3,0,2.3-1.1,2.3-2.4V30.9C991.7,29.6,990.7,28.5,989.4,28.5z"/>
		</g>
	</g>
</g>
</svg>
